<svg xmlns="http://www.w3.org/2000/svg" xmlns:xlink="http://www.w3.org/1999/xlink" contentStyleType="text/css" data-diagram-type="STATE" height="1184px" preserveAspectRatio="none" style="width:555px;height:1184px;background:#FFFFFF;" version="1.1" viewBox="0 0 555 1184" width="555px" zoomAndPan="magnify"><title>M&#225;quina de Estados PQRS (V1)</title><defs/><g><g class="title" data-source-line="2"><text fill="#000000" font-family="sans-serif" font-size="14" font-weight="bold" lengthAdjust="spacing" textLength="220.8555" x="160.4383" y="23.5352">M&#225;quina de Estados PQRS (V1)</text></g><ellipse cx="367.77" cy="53.4883" fill="#222222" rx="10" ry="10" style="stroke:#222222;stroke-width:1;"/><g id="RECEIVED"><rect fill="#F1F1F1" height="50" rx="12.5" ry="12.5" style="stroke:#181818;stroke-width:0.5;" width="84.9756" x="325.28" y="140.4883"/><line style="stroke:#181818;stroke-width:0.5;" x1="325.28" x2="410.2556" y1="166.9766" y2="166.9766"/><text fill="#000000" font-family="sans-serif" font-size="14" lengthAdjust="spacing" textLength="64.9756" x="335.28" y="159.0234">RECEIVED</text></g><g id="RADICATED"><rect fill="#F1F1F1" height="50" rx="12.5" ry="12.5" style="stroke:#181818;stroke-width:0.5;" width="99.3037" x="318.11" y="267.4883"/><line style="stroke:#181818;stroke-width:0.5;" x1="318.11" x2="417.4137" y1="293.9766" y2="293.9766"/><text fill="#000000" font-family="sans-serif" font-size="14" lengthAdjust="spacing" textLength="79.3037" x="328.11" y="286.0234">RADICATED</text></g><g id="CLASSIFIED"><rect fill="#F1F1F1" height="50" rx="12.5" ry="12.5" style="stroke:#181818;stroke-width:0.5;" width="95.5371" x="320" y="394.4883"/><line style="stroke:#181818;stroke-width:0.5;" x1="320" x2="415.5371" y1="420.9766" y2="420.9766"/><text fill="#000000" font-family="sans-serif" font-size="14" lengthAdjust="spacing" textLength="75.5371" x="330" y="413.0234">CLASSIFIED</text></g><g id="ASSIGNED"><rect fill="#F1F1F1" height="50" rx="12.5" ry="12.5" style="stroke:#181818;stroke-width:0.5;" width="87.3066" x="324.11" y="521.4883"/><line style="stroke:#181818;stroke-width:0.5;" x1="324.11" x2="411.4166" y1="547.9766" y2="547.9766"/><text fill="#000000" font-family="sans-serif" font-size="14" lengthAdjust="spacing" textLength="67.3066" x="334.11" y="540.0234">ASSIGNED</text></g><g id="IN_PROGRESS"><rect fill="#F1F1F1" height="50" rx="12.5" ry="12.5" style="stroke:#181818;stroke-width:0.5;" width="110.4805" x="312.53" y="648.4883"/><line style="stroke:#181818;stroke-width:0.5;" x1="312.53" x2="423.0105" y1="674.9766" y2="674.9766"/><text fill="#000000" font-family="sans-serif" font-size="14" lengthAdjust="spacing" textLength="90.4805" x="322.53" y="667.0234">IN_PROGRESS</text></g><g id="RESPONDED"><rect fill="#F1F1F1" height="50" rx="12.5" ry="12.5" style="stroke:#181818;stroke-width:0.5;" width="101.498" x="155.02" y="775.4883"/><line style="stroke:#181818;stroke-width:0.5;" x1="155.02" x2="256.518" y1="801.9766" y2="801.9766"/><text fill="#000000" font-family="sans-serif" font-size="14" lengthAdjust="spacing" textLength="81.498" x="165.02" y="794.0234">RESPONDED</text></g><g id="ON_HOLD"><rect fill="#F1F1F1" height="50" rx="12.5" ry="12.5" style="stroke:#181818;stroke-width:0.5;" width="87.334" x="414.1" y="775.4883"/><line style="stroke:#181818;stroke-width:0.5;" x1="414.1" x2="501.434" y1="801.9766" y2="801.9766"/><text fill="#000000" font-family="sans-serif" font-size="14" lengthAdjust="spacing" textLength="67.334" x="424.1" y="794.0234">ON_HOLD</text></g><g id="CLOSED"><rect fill="#F1F1F1" height="50" rx="12.5" ry="12.5" style="stroke:#181818;stroke-width:0.5;" width="73.6416" x="91.95" y="902.4883"/><line style="stroke:#181818;stroke-width:0.5;" x1="91.95" x2="165.5916" y1="928.9766" y2="928.9766"/><text fill="#000000" font-family="sans-serif" font-size="14" lengthAdjust="spacing" textLength="53.6416" x="101.95" y="921.0234">CLOSED</text></g><g id="ARCHIVED"><rect fill="#F1F1F1" height="50" rx="12.5" ry="12.5" style="stroke:#181818;stroke-width:0.5;" width="89.7471" x="61.89" y="1029.4883"/><line style="stroke:#181818;stroke-width:0.5;" x1="61.89" x2="151.6371" y1="1055.9766" y2="1055.9766"/><text fill="#000000" font-family="sans-serif" font-size="14" lengthAdjust="spacing" textLength="69.7471" x="71.89" y="1048.0234">ARCHIVED</text></g><g id="REOPENED"><rect fill="#F1F1F1" height="50" rx="12.5" ry="12.5" style="stroke:#181818;stroke-width:0.5;" width="91.0596" x="298.24" y="1029.4883"/><line style="stroke:#181818;stroke-width:0.5;" x1="298.24" x2="389.2996" y1="1055.9766" y2="1055.9766"/><text fill="#000000" font-family="sans-serif" font-size="14" lengthAdjust="spacing" textLength="71.0596" x="308.24" y="1048.0234">REOPENED</text></g><ellipse cx="35.77" cy="1167.4883" fill="none" rx="11" ry="11" style="stroke:#222222;stroke-width:1;"/><ellipse cx="35.77" cy="1167.4883" fill="#222222" rx="6" ry="6" style="stroke:#222222;stroke-width:1;"/><g class="entity" data-entity="GMN2" data-source-line="22" data-uid="ent0003" id="entity_GMN2"><path d="M444.8,152.8283 L444.8,161.4883 L410.6,165.4883 L444.8,169.4883 L444.8,178.1388 A0,0 0 0 0 444.8,178.1388 L548.7321,178.1388 A0,0 0 0 0 548.7321,178.1388 L548.7321,162.8283 L538.7321,152.8283 L444.8,152.8283 A0,0 0 0 0 444.8,152.8283" fill="#FEFFDD" style="stroke:#181818;stroke-width:0.5;"/><path d="M538.7321,152.8283 L538.7321,162.8283 L548.7321,162.8283 L538.7321,152.8283" fill="#FEFFDD" style="stroke:#181818;stroke-width:0.5;"/><text fill="#000000" font-family="sans-serif" font-size="13" lengthAdjust="spacing" textLength="82.9321" x="450.8" y="170.3966">Estado inicial</text></g><g class="entity" data-entity="GMN5" data-source-line="26" data-uid="ent0006" id="entity_GMN5"><path d="M200.43,914.8283 L200.43,923.4883 L165.72,927.4883 L200.43,931.4883 L200.43,940.1388 A0,0 0 0 0 200.43,940.1388 L277.1116,940.1388 A0,0 0 0 0 277.1116,940.1388 L277.1116,924.8283 L267.1116,914.8283 L200.43,914.8283 A0,0 0 0 0 200.43,914.8283" fill="#FEFFDD" style="stroke:#181818;stroke-width:0.5;"/><path d="M267.1116,914.8283 L267.1116,924.8283 L277.1116,924.8283 L267.1116,914.8283" fill="#FEFFDD" style="stroke:#181818;stroke-width:0.5;"/><text fill="#000000" font-family="sans-serif" font-size="13" lengthAdjust="spacing" textLength="55.6816" x="206.43" y="932.3966">Terminal</text></g><g class="entity" data-entity="GMN8" data-source-line="30" data-uid="ent0009" id="entity_GMN8"><path d="M186.43,1041.8283 L186.43,1050.4883 L151.94,1054.4883 L186.43,1058.4883 L186.43,1067.1388 A0,0 0 0 0 186.43,1067.1388 L263.1116,1067.1388 A0,0 0 0 0 263.1116,1067.1388 L263.1116,1051.8283 L253.1116,1041.8283 L186.43,1041.8283 A0,0 0 0 0 186.43,1041.8283" fill="#FEFFDD" style="stroke:#181818;stroke-width:0.5;"/><path d="M253.1116,1041.8283 L253.1116,1051.8283 L263.1116,1051.8283 L253.1116,1041.8283" fill="#FEFFDD" style="stroke:#181818;stroke-width:0.5;"/><text fill="#000000" font-family="sans-serif" font-size="13" lengthAdjust="spacing" textLength="55.6816" x="192.43" y="1059.3966">Terminal</text></g><!--link *start* to RECEIVED--><g class="link" data-entity-1=".start." data-entity-2="RECEIVED" data-source-line="4" data-uid="lnk4" id="link_.start._RECEIVED"><path d="M367.77,63.8683 C367.77,80.5983 367.77,110.0783 367.77,134.1183" fill="none" id="*start*-to-RECEIVED" style="stroke:#181818;stroke-width:1;"/><polygon fill="#181818" points="367.77,140.1183,371.77,131.1183,367.77,135.1183,363.77,131.1183,367.77,140.1183" style="stroke:#181818;stroke-width:1;"/><text fill="#000000" font-family="sans-serif" font-size="13" lengthAdjust="spacing" textLength="33.9727" x="368.77" y="107.0566">Inicio</text></g><!--link RECEIVED to RADICATED--><g class="link" data-entity-1="RECEIVED" data-entity-2="RADICATED" data-source-line="6" data-uid="lnk6" id="link_RECEIVED_RADICATED"><path d="M367.77,190.8883 C367.77,212.9083 367.77,239.1483 367.77,261.1483" fill="none" id="RECEIVED-to-RADICATED" style="stroke:#181818;stroke-width:1;"/><polygon fill="#181818" points="367.77,267.1483,371.77,258.1483,367.77,262.1483,363.77,258.1483,367.77,267.1483" style="stroke:#181818;stroke-width:1;"/><text fill="#000000" font-family="sans-serif" font-size="13" lengthAdjust="spacing" textLength="46.4966" x="368.77" y="234.0566">Radicar</text></g><!--link RADICATED to CLASSIFIED--><g class="link" data-entity-1="RADICATED" data-entity-2="CLASSIFIED" data-source-line="7" data-uid="lnk8" id="link_RADICATED_CLASSIFIED"><path d="M367.77,317.8883 C367.77,339.9083 367.77,366.1483 367.77,388.1483" fill="none" id="RADICATED-to-CLASSIFIED" style="stroke:#181818;stroke-width:1;"/><polygon fill="#181818" points="367.77,394.1483,371.77,385.1483,367.77,389.1483,363.77,385.1483,367.77,394.1483" style="stroke:#181818;stroke-width:1;"/><text fill="#000000" font-family="sans-serif" font-size="13" lengthAdjust="spacing" textLength="58.0112" x="368.77" y="361.0566">Clasificar</text></g><!--link CLASSIFIED to ASSIGNED--><g class="link" data-entity-1="CLASSIFIED" data-entity-2="ASSIGNED" data-source-line="8" data-uid="lnk10" id="link_CLASSIFIED_ASSIGNED"><path d="M367.77,444.8883 C367.77,466.9083 367.77,493.1483 367.77,515.1483" fill="none" id="CLASSIFIED-to-ASSIGNED" style="stroke:#181818;stroke-width:1;"/><polygon fill="#181818" points="367.77,521.1483,371.77,512.1483,367.77,516.1483,363.77,512.1483,367.77,521.1483" style="stroke:#181818;stroke-width:1;"/><text fill="#000000" font-family="sans-serif" font-size="13" lengthAdjust="spacing" textLength="48.0264" x="368.77" y="488.0566">Asignar</text></g><!--link ASSIGNED to IN_PROGRESS--><g class="link" data-entity-1="ASSIGNED" data-entity-2="IN_PROGRESS" data-source-line="9" data-uid="lnk12" id="link_ASSIGNED_IN_PROGRESS"><path d="M367.77,571.8883 C367.77,593.9083 367.77,620.1483 367.77,642.1483" fill="none" id="ASSIGNED-to-IN_PROGRESS" style="stroke:#181818;stroke-width:1;"/><polygon fill="#181818" points="367.77,648.1483,371.77,639.1483,367.77,643.1483,363.77,639.1483,367.77,648.1483" style="stroke:#181818;stroke-width:1;"/><text fill="#000000" font-family="sans-serif" font-size="13" lengthAdjust="spacing" textLength="74.9976" x="368.77" y="615.0566">En Progreso</text></g><!--link IN_PROGRESS to RESPONDED--><g class="link" data-entity-1="IN_PROGRESS" data-entity-2="RESPONDED" data-source-line="10" data-uid="lnk14" id="link_IN_PROGRESS_RESPONDED"><path d="M312.24,689.7183 C289.01,698.2083 263.01,710.7383 243.77,728.4883 C230,741.1883 222.5039,754.4959 216.3239,769.5859" fill="none" id="IN_PROGRESS-to-RESPONDED" style="stroke:#181818;stroke-width:1;"/><polygon fill="#181818" points="214.05,775.1383,221.1625,768.3256,215.945,770.5113,213.7593,765.2937,214.05,775.1383" style="stroke:#181818;stroke-width:1;"/><text fill="#000000" font-family="sans-serif" font-size="13" lengthAdjust="spacing" textLength="67.0693" x="244.77" y="742.0566">Responder</text></g><!--link IN_PROGRESS to ON_HOLD--><g class="link" data-entity-1="IN_PROGRESS" data-entity-2="ON_HOLD" data-source-line="11" data-uid="lnk16" id="link_IN_PROGRESS_ON_HOLD"><path d="M373.26,698.6583 C377.33,713.1383 383.91,731.3983 393.77,745.4883 C401.52,756.5683 407.4377,762.9171 417.7577,771.3671" fill="none" id="IN_PROGRESS-to-ON_HOLD" style="stroke:#181818;stroke-width:1;"/><polygon fill="#181818" points="422.4,775.1683,417.9706,766.3717,418.5314,772.0007,412.9024,772.5615,422.4,775.1683" style="stroke:#181818;stroke-width:1;"/><text fill="#000000" font-family="sans-serif" font-size="13" lengthAdjust="spacing" textLength="41.5581" x="394.77" y="742.0566">Pausar</text></g><!--link ON_HOLD to IN_PROGRESS--><g class="link" data-entity-1="ON_HOLD" data-entity-2="IN_PROGRESS" data-source-line="12" data-uid="lnk17" id="link_ON_HOLD_IN_PROGRESS"><path d="M456.12,775.1383 C454.16,760.6083 449.93,742.3383 440.77,728.4883 C433.11,716.9183 426.9396,710.4512 415.7796,702.3212" fill="none" id="ON_HOLD-to-IN_PROGRESS" style="stroke:#181818;stroke-width:1;"/><polygon fill="#181818" points="410.93,698.7883,415.8491,707.3207,414.9713,701.7324,420.5597,700.8546,410.93,698.7883" style="stroke:#181818;stroke-width:1;"/><text fill="#000000" font-family="sans-serif" font-size="13" lengthAdjust="spacing" textLength="59.4585" x="449.72" y="742.0566">Reanudar</text></g><!--link RESPONDED to CLOSED--><g class="link" data-entity-1="RESPONDED" data-entity-2="CLOSED" data-source-line="13" data-uid="lnk19" id="link_RESPONDED_CLOSED"><path d="M190.74,825.8883 C177.17,847.9083 160.4565,875.0395 146.9065,897.0395" fill="none" id="RESPONDED-to-CLOSED" style="stroke:#181818;stroke-width:1;"/><polygon fill="#181818" points="143.76,902.1483,151.8856,896.5828,146.3821,897.891,145.074,892.3875,143.76,902.1483" style="stroke:#181818;stroke-width:1;"/><text fill="#000000" font-family="sans-serif" font-size="13" lengthAdjust="spacing" textLength="39.3745" x="172.88" y="869.0566">Cerrar</text></g><!--link CLOSED to ARCHIVED--><g class="link" data-entity-1="CLOSED" data-entity-2="ARCHIVED" data-source-line="14" data-uid="lnk21" id="link_CLOSED_ARCHIVED"><path d="M124.47,952.8883 C120.6,974.9083 115.9595,1001.239 112.0895,1023.239" fill="none" id="CLOSED-to-ARCHIVED" style="stroke:#181818;stroke-width:1;"/><polygon fill="#181818" points="111.05,1029.1483,116.5488,1020.9774,111.9162,1024.2239,108.6697,1019.5914,111.05,1029.1483" style="stroke:#181818;stroke-width:1;"/><text fill="#000000" font-family="sans-serif" font-size="13" lengthAdjust="spacing" textLength="52" x="120.08" y="996.0566">Archivar</text></g><!--link CLOSED to REOPENED--><g class="link" data-entity-1="CLOSED" data-entity-2="REOPENED" data-source-line="15" data-uid="lnk23" id="link_CLOSED_REOPENED"><path d="M165.73,949.9783 C203.55,971.9683 257.0333,1003.062 296.5833,1026.062" fill="none" id="CLOSED-to-REOPENED" style="stroke:#181818;stroke-width:1;"/><polygon fill="#181818" points="301.77,1029.0783,296.0008,1021.096,297.4477,1026.5647,291.9791,1028.0117,301.77,1029.0783" style="stroke:#181818;stroke-width:1;"/><text fill="#000000" font-family="sans-serif" font-size="13" lengthAdjust="spacing" textLength="45.2207" x="250.14" y="996.0566">Reabrir</text></g><!--link REOPENED to IN_PROGRESS--><g class="link" data-entity-1="REOPENED" data-entity-2="IN_PROGRESS" data-source-line="16" data-uid="lnk24" id="link_REOPENED_IN_PROGRESS"><path d="M345.29,1029.4083 C349.61,961.1983 361.5104,773.2163 365.8504,704.7563" fill="none" id="REOPENED-to-IN_PROGRESS" style="stroke:#181818;stroke-width:1;"/><polygon fill="#181818" points="366.23,698.7683,361.6686,707.4972,365.9137,703.7583,369.6526,708.0033,366.23,698.7683" style="stroke:#181818;stroke-width:1;"/><text fill="#000000" font-family="sans-serif" font-size="13" lengthAdjust="spacing" textLength="69.9766" x="357.04" y="869.0566">Reprocesar</text></g><!--link CLOSED to *end*--><g class="link" data-entity-1="CLOSED" data-entity-2=".end." data-source-line="18" data-uid="lnk26" id="link_CLOSED_.end."><path d="M91.47,952.6883 C67.46,970.6483 38.29,997.4983 24.77,1029.4883 C6,1073.8783 21.6774,1127.8695 29.9774,1151.0495" fill="none" id="CLOSED-to-*end*" style="stroke:#181818;stroke-width:1;"/><polygon fill="#181818" points="32,1156.6983,32.7319,1146.8767,30.3145,1151.991,25.2002,1149.5735,32,1156.6983" style="stroke:#181818;stroke-width:1;"/><text fill="#000000" font-family="sans-serif" font-size="13" lengthAdjust="spacing" textLength="18.7954" x="25.77" y="1059.5566">Fin</text></g><!--link ARCHIVED to *end*--><g class="link" data-entity-1="ARCHIVED" data-entity-2=".end." data-source-line="19" data-uid="lnk27" id="link_ARCHIVED_.end."><path d="M91.19,1079.8483 C75.51,1104.3583 55.4012,1135.7827 44.7212,1152.4927" fill="none" id="ARCHIVED-to-*end*" style="stroke:#181818;stroke-width:1;"/><polygon fill="#181818" points="41.49,1157.5483,49.7072,1152.119,44.1827,1153.3353,42.9664,1147.8107,41.49,1157.5483" style="stroke:#181818;stroke-width:1;"/><text fill="#000000" font-family="sans-serif" font-size="13" lengthAdjust="spacing" textLength="18.7954" x="72.27" y="1123.0566">Fin</text></g><!--SRC=[TP9DRiCW48Ntd6AMRQKikisYacMJ12arBaJPL5L43N6GN4Z1xdrwbbwi1ZkkyzCbRpvctcDeT5ChUFxv_cor4I0LODy8QJqKBup3tVRn7g7NXpUOpPw0uHIJBSvW3iJeKbk4HYdMauoaoIO2J4XT2eV-j42awuHpiY0HIMlXzJvI4prWuR3C8vHuNPcE6ALG9_ckO7J9CESTWWqKpbPEUOkcbTuoBsYUzPQKFreZbRkYQBvRqNLW2j7wRjf9k1x6b32j3C76pdqmoljGohaOA9vZ69QkXbTBN7dGN-TbXcc1yy6WU7Swj1waM-EFpfOgU9ms2HkQmq8RD4uxbv6nZGAdgqC3TZzk4i6mRz1XeQ96oaW8xEMDVbZ7RvJxwBxA_-J9mKts5m00]--></g></svg>